<?xml version="1.0" encoding="UTF-8"?>
<!DOCTYPE svg PUBLIC "-//W3C//DTD SVG 1.1//EN" "http://www.w3.org/Graphics/SVG/1.1/DTD/svg11.dtd">
<!-- Creator: CorelDRAW 2019 (64-Bit) -->
<svg xmlns="http://www.w3.org/2000/svg" xml:space="preserve" width="134" height="77" version="1.1" style="shape-rendering:geometricPrecision; text-rendering:geometricPrecision; image-rendering:optimizeQuality; fill-rule:evenodd; clip-rule:evenodd"
viewBox="0 0 21000 29700"
 xmlns:xlink="http://www.w3.org/1999/xlink">
 <defs>
  <style type="text/css">
   <![CDATA[
    .fil2 {fill:#FEFEFE}
    .fil3 {fill:#E31E24}
    .fil1 {fill:#303374}
    .fil0 {fill:#2B2A29;fill-rule:nonzero}
   ]]>
  </style>
 </defs>
 <g id="Слой_x0020_1">
  <metadata id="CorelCorpID_0Corel-Layer"/>
  <path class="fil0" d="M7659.87 6130.62c-6.73,93.8 -10.24,192.4 -10.24,296.12l0 533.96c0,198.8 5.11,307.96 15.04,328.45 9.92,20.17 45.43,30.41 106.88,30.41l70.09 0 0 59.54c-110.73,-3.84 -204.49,-5.76 -281.29,-5.76 -77.44,0 -170.57,1.92 -279.37,5.76l0 -59.54 78.72 0c41.28,0 68.16,-5.44 80.64,-16.33 12.49,-10.88 20.16,-32.33 23.36,-64.34 6.08,-72.99 9.28,-167.43 9.28,-282.99l0 -534.93c0,-105.32 -2.24,-202.31 -6.4,-290.35l-95.37 0c-153.6,0 -238.08,3.52 -253.76,10.89 -15.68,7.04 -25.92,35.21 -30.72,84.19l-13.12 125.81 -59.52 0 1.92 -111.41c0,-45.13 -3.84,-109.8 -11.53,-193.99 337.62,3.84 536.02,5.76 595.22,5.76l518.42 -5.76c-12.16,105.64 -19.2,207.44 -21.12,305.4l-59.52 0 -9.28 -123.25c-3.84,-42.58 -8.96,-67.87 -16,-75.55 -6.72,-7.68 -22.08,-12.81 -45.77,-14.41 -68.47,-5.12 -146.23,-7.68 -233.6,-7.68l-72.96 0zm828.5 520.84l122.25 -108.2c28.8,-27.21 56.96,-45.46 84.8,-55.7 27.52,-9.93 61.11,-15.05 100.16,-15.05 69.13,0 129.28,13.77 179.85,41.62 50.88,27.85 86.08,63.7 105.6,106.92 19.52,43.54 29.44,117.49 29.44,222.17l-3.84 277.54c0,62.43 2.56,112.05 7.68,148.22 1.6,15.05 7.03,26.25 15.36,33.93 8.64,7.37 26.88,12.49 55.04,15.05l71.69 7.36 0 53.78c-61.13,-3.84 -120.33,-5.76 -178.25,-5.76 -49.6,0 -99.2,1.92 -148.17,5.76 11.53,-156.54 17.29,-310.84 17.29,-462.58 0,-101.8 -6.4,-170.62 -19.21,-206.8 -12.79,-36.49 -35.51,-64.98 -68.48,-86.43 -33.28,-21.13 -74.88,-31.69 -125.44,-31.69 -51.84,0 -98.88,12.48 -141.13,37.13 -42.23,24.65 -71.68,53.14 -87.68,85.48 -11.2,23.37 -16.96,78.11 -16.96,165.18l0 162.94c0,148.54 3.52,230.81 10.24,246.5 7.04,15.68 32,25.29 75.2,29.13l81.61 7.36 0 53.78c-97.61,-3.84 -176.01,-5.76 -235.22,-5.76 -62.07,0 -142.72,1.92 -242.88,5.76l0 -53.78 58.88 -7.36c37.13,-4.48 60.17,-9.61 69.44,-15.69 9.28,-5.76 15.69,-19.52 18.57,-40.65 4.48,-33.62 6.71,-109.17 6.71,-226.65l0 -632.56c0,-166.79 -4.47,-259.94 -13.11,-280.11 -5.77,-13.77 -31.05,-20.49 -75.84,-20.49l-64.65 0 0 -57.62c96.96,-10.25 174.41,-24.33 232.65,-42.58l76.8 -26.57c9.92,0 15.04,6.72 15.04,19.85l-2.87 38.41 -5.77 168.71c-3.2,85.15 -4.8,151.1 -4.8,198.16l0 251.29zm1009.95 274.35c3.2,123.25 34.56,216.72 94.73,280.75 59.84,63.7 138.56,95.71 235.84,95.71 43.52,0 87.04,-7.36 129.93,-21.77 43.19,-14.4 86.08,-36.17 128.32,-65.3l16 14.08 -30.08 78.75c-51.84,30.1 -105.29,52.51 -160.01,67.55 -55.04,15.05 -111.68,22.73 -169.61,22.73 -127.03,0 -229.11,-40.34 -306.88,-120.69 -77.76,-80.35 -116.81,-189.19 -116.81,-326.84 0,-105 21.77,-195.92 65.61,-272.75 28.8,-50.9 81.92,-97.64 159.36,-140.85 77.13,-43.22 152.65,-64.67 225.6,-64.67 110.42,0 198.09,32.66 262.74,97.64 64.64,65.31 96.96,156.22 96.96,273.39l-1.92 55.38c-41.28,9.92 -80.32,16.32 -117.76,19.52 -66.89,4.81 -159.68,7.37 -278.09,7.37l-233.93 0zm1.92 -69.15c96.97,3.84 203.85,5.76 320.97,5.76 46.72,0 92.16,-2.24 136.01,-6.72l0 -52.5c0,-55.06 -10.89,-107.24 -32.97,-156.54 -13.76,-30.73 -37.76,-56.02 -71.99,-76.51 -34.57,-20.17 -74.25,-30.41 -119.37,-30.41 -70.09,0 -126.09,25.61 -168,77.15 -41.93,51.22 -63.37,131.25 -64.65,239.77z"/>
  <path class="fil0" d="M5727.88 8236.09l0 377.13 1.57 216.85c0,135.66 1.57,234.65 4.71,297.51 149.76,11 309.98,16.76 481.2,16.76 114.67,0 211.01,-5.24 289.03,-15.19 50.26,-6.28 103.67,-19.38 159.69,-39.81 25.66,-90.09 51.84,-202.7 78.54,-337.84l100.54 0c-27.23,224.7 -40.84,374.51 -40.84,449.41l3.14 69.14c-117.81,8.38 -233.52,12.57 -347.14,12.57l-240.87 -3.67c-266.51,-5.76 -461.82,-8.9 -586.96,-8.9 -119.9,0 -279.08,3.14 -477.52,9.43l0 -97.43 47.64 0c89.02,0 145.04,-8.9 168.08,-26.19 23.04,-17.28 38.23,-58.14 46.08,-122.56 7.85,-63.91 11.52,-205.85 11.52,-425.32l0 -841.21c0,-137.75 -3.15,-250.37 -9.96,-338.37 -6.8,-87.47 -13.61,-139.85 -21.46,-156.61 -7.85,-16.76 -18.85,-29.85 -32.99,-39.28 -14.13,-8.91 -58.12,-17.29 -131.95,-24.62l-117.81 -12.05 0 -97.42 165.98 0 162.33 4.71c91.1,3.14 160.22,4.71 207.34,4.71l589.58 -7.85 279.6 -1.57c95.3,-1.05 191.12,2.09 288.51,9.42 -39.79,121.52 -61.79,279.71 -65.97,474.56l-100.54 0c0,-112.62 -5.76,-206.37 -16.75,-281.28 -121.48,-45.04 -270.18,-67.57 -446.63,-67.57 -140.33,0 -287.46,6.29 -441.41,18.34 1.05,96.37 0,192.23 -3.14,288.61l-3.14 236.22 0 311.66c102.63,6.29 192.69,9.43 271.23,9.43 246.09,0 385.37,-8.38 418.36,-25.67 32.46,-17.28 48.69,-70.19 48.69,-159.23l0 -101.09 100.54 0c-7.33,155.04 -11,278.65 -11,371.37 0,97.42 3.67,212.65 11,345.17l-100.54 0 0 -89.04c0,-97.95 -19.37,-157.66 -58.12,-179.66 -38.74,-22 -175.4,-33 -410.5,-33 -86.4,0 -176.46,3.14 -269.66,9.43zm1777.63 -145.62l231.44 -206.37c27.23,-24.62 56.55,-42.95 86.92,-53.95 67.55,-22.52 135.09,-34.05 202.11,-34.05 109.43,0 203.69,22 283.27,66.53 79.59,44.52 136.66,102.66 171.75,173.89 34.56,70.72 51.83,182.28 51.83,333.66l-6.28 483.46c0,167.09 7.33,262.94 21.46,288.61 19.38,32.99 57.07,49.23 113.1,49.23l110.49 0 0 88c-109.44,-6.29 -204.21,-9.43 -283.8,-9.43 -78.02,0 -161.27,3.14 -250.29,9.43 18.86,-199.04 28.28,-468.27 28.28,-807.69 0,-136.71 -12.04,-233.61 -35.6,-290.7 -24.08,-57.09 -64.41,-103.19 -120.96,-138.28 -56.54,-34.57 -124.09,-51.86 -203.68,-51.86 -98.43,0 -182.21,25.15 -250.8,74.91 -69.12,50.28 -111.53,105.28 -127.76,166.04 -9.95,39.81 -15.19,144.04 -15.19,312.7 0,186.99 1.57,360.89 4.71,521.17 1.05,48.19 8.39,78.05 21.47,90.62 26.18,23.57 68.6,35.09 127.76,35.09l109.96 0 0 88c-174.36,-6.29 -312.59,-9.43 -415.74,-9.43 -109.44,0 -233.53,3.14 -372.81,9.43l0 -88 111.01 0c76.44,0 120.95,-17.81 133.51,-52.9 13.1,-35.1 19.37,-247.23 19.37,-635.88 0,-174.42 -2.08,-311.13 -6.27,-410.13 -2.1,-33 -9.95,-55.52 -24.61,-67.57 -14.14,-12.05 -54.99,-18.33 -122,-18.33l-111.01 0 0 -88c87.97,-10.47 167.03,-24.09 236.67,-41.9 70.16,-17.81 148.18,-44.52 235.62,-80.67 9.43,-4.19 17.8,-6.28 26.18,-6.28 16.24,0 24.61,11.52 24.61,35.09l-1.57 58.67 -3.15 206.89zm2644.73 -11.52c23.56,66 35.08,119.95 35.08,162.38 0,91.14 -27.75,179.66 -82.73,264.51 -55.5,84.85 -134.04,153.47 -236.14,205.33 -102.63,51.85 -212.59,78.04 -331.44,78.04l-72.26 0c-67.03,49.76 -109.43,86.95 -127.23,111.04 -17.81,24.62 -26.71,48.72 -26.71,71.76 0,38.76 19.9,69.14 59.69,91.67 39.79,22.52 121.47,33.52 244,33.52 47.12,0 114.67,-1.57 202.64,-4.71 125.66,-5.24 216.77,-7.86 273.32,-7.86 80.63,0 142.42,13.09 185.35,39.28 42.94,25.67 80.11,71.24 110.48,136.19 30.89,64.95 46.08,138.28 46.08,219.99 0,114.71 -34.56,224.18 -104.2,328.94 -69.64,104.76 -171.21,189.09 -303.69,252.47 -132.99,63.38 -286.41,94.8 -459.2,94.8 -210.49,0 -372.8,-45.57 -486.43,-137.23 -113.62,-91.66 -170.17,-204.8 -170.17,-338.89 0,-82.76 29.85,-167.09 89.02,-251.95 106.29,-50.28 195.3,-100.56 268.08,-151.89 -83.78,-27.24 -137.19,-52.38 -161.27,-75.43 -23.56,-22.52 -35.61,-51.86 -35.61,-87.47 0,-42.43 11.53,-84.86 35.09,-126.24 13.08,-25.66 47.12,-56.57 101.05,-92.71l148.18 -105.28c-122.53,-30.9 -211.01,-74.38 -264.95,-130.42 -71.73,-75.95 -107.33,-172.85 -107.33,-290.71 0,-103.71 26.7,-197.99 79.58,-282.84 53.42,-85.38 131.43,-152.43 234.58,-201.66 131.94,-62.33 259.19,-93.76 381.71,-93.76 78.02,0 146.08,9.95 204.72,29.86 59.17,19.9 118.86,53.95 180.13,102.13l128.8 0c133,0 236.15,-4.19 309.97,-12.57l16.77 31.95c-30.9,44 -58.13,90.1 -81.69,137.76l-283.27 0zm-231.96 247.75c0,-128.32 -32.98,-231.51 -98.44,-309.56 -65.44,-78.04 -147.65,-117.32 -247.14,-117.32 -97.91,0 -176.98,31.95 -236.66,95.33 -60.22,63.9 -90.06,152.42 -90.06,265.03 0,136.71 32.46,244.09 97.38,321.61 64.93,77.52 146.61,116.28 245.06,116.28 97.91,0 177.49,-32.47 238.76,-97.95 60.73,-64.95 91.1,-156.09 91.1,-273.42zm-418.35 974.78c-72.79,0 -122.53,8.38 -148.71,24.62 -85.87,54.99 -138.23,99.52 -156.55,133.56 -30.9,53.43 -46.09,120.47 -46.09,201.14 0,111.56 41.37,203.75 124.1,276.56 82.73,72.81 197.92,108.95 345.06,108.95 113.62,0 213.1,-20.95 299.5,-62.86 85.87,-41.9 152.37,-99.52 200.01,-172.85 47.65,-73.33 71.21,-148.76 71.21,-226.8 0,-66.52 -16.75,-124.66 -49.74,-174.95 -33.51,-50.28 -72.78,-82.23 -118.86,-96.37 -23.56,-7.34 -77.49,-11 -161.27,-11l-358.66 0zm1637.83 -2301.01c-16.76,300.13 -25.13,571.45 -25.13,813.97l0 788.83c0,313.22 6.8,490.79 19.9,532.69 7.33,21.48 40.83,35.62 101.05,41.9l130.38 13.62 0 88c-112.05,-6.29 -218.35,-9.43 -319.92,-9.43 -113.1,0 -260.76,3.14 -443.49,9.43l0 -88 131.94 -11c58.12,-4.71 91.11,-19.9 99.49,-44.52 13.09,-39.81 19.89,-222.09 19.89,-546.31l0 -786.21 -1.57 -295.42 -4.71 -201.66c0,-50.28 -5.24,-80.66 -16.75,-92.19 -16.24,-16.23 -50.28,-24.61 -102.63,-24.61l-125.66 0 0 -88c213.62,-19.38 383.79,-59.19 511.03,-119.42l26.18 18.33zm761.33 113.66c46.59,0 87.44,16.76 120.94,50.81 34.04,34.04 50.8,74.9 50.8,122.56 0,48.19 -16.76,88.53 -50.8,122.05 -33.5,33.52 -74.35,50.28 -120.94,50.28 -48.18,0 -89.54,-16.76 -123.05,-50.28 -34.04,-33.52 -50.79,-73.86 -50.79,-122.05 0,-47.66 16.75,-88.52 50.79,-122.56 33.51,-34.05 74.87,-50.81 123.05,-50.81zm119.38 675.69l36.65 23.05c-6.29,76.99 -10.47,161.32 -12.56,253.51 -6.29,298.56 -9.43,519.08 -9.43,661.55 0,133.04 4.71,246.7 13.62,340.98 4.18,36.67 14.13,62.34 29.31,76.48 15.19,14.14 52.37,25.14 110.49,32.47l104.19 13.62 0 88c-149.75,-6.29 -286.41,-9.43 -409.46,-9.43 -120.95,0 -243.47,3.14 -366.52,9.43l0 -88 132.47 -13.62c51.84,-4.19 83.26,-13.62 95.29,-28.81 11.53,-14.66 18.86,-64.42 22,-148.23 5.23,-130.42 7.85,-310.08 7.85,-538.45 0,-159.24 -2.62,-281.8 -7.85,-368.23 -2.09,-31.43 -11,-53.95 -26.71,-67.57 -16.23,-13.09 -51.83,-19.9 -107.34,-19.9l-115.71 0 0 -88c124.62,-18.33 216.77,-35.09 275.42,-50.81 59.16,-15.19 135.09,-41.38 228.29,-78.04zm564.45 1021.39l0 99.52c0,80.14 7.32,129.38 21.47,149.28 26.7,32.48 79.06,64.43 156.55,94.81 77.49,30.9 157.09,46.09 239.29,46.09 105.77,0 191.64,-28.28 258.66,-85.38 66.49,-56.57 100.01,-124.14 100.01,-203.23 0,-62.33 -19.37,-112.09 -58.12,-150.33 -38.75,-37.71 -113.1,-68.09 -222.53,-90.09 -203.17,-41.38 -337.21,-77 -402.66,-107.9 -65.44,-30.38 -114.67,-71.76 -147.13,-122.57 -32.98,-51.33 -49.22,-113.13 -49.22,-185.94 0,-136.19 49.74,-246.71 148.71,-332.08 98.95,-84.86 239.28,-127.29 420.97,-127.29 143.47,0 286.94,28.81 429.36,86.95 -8.9,69.67 -16.24,185.95 -21.99,349.9l-91.11 0c-2.09,-90.1 -12.04,-149.28 -29.32,-178.09 -23.56,-37.72 -66.5,-72.29 -129.34,-102.67 -62.3,-30.9 -128.8,-46.09 -199.49,-46.09 -93.72,0 -168.08,23.57 -224.1,71.24 -56.03,47.66 -83.78,107.37 -83.78,178.61 0,68.62 22,120.47 65.98,155.04 43.98,36.14 165.98,73.85 365.47,113.66 147.14,29.86 244.52,57.1 291.66,82.76 47.12,25.67 84.82,64.43 113.62,116.81 28.8,51.85 42.93,111.56 42.93,179.13 0,138.28 -59.17,257.18 -176.98,357.23 -118.33,100.04 -275.94,150.33 -473.34,150.33 -126.18,0 -267.03,-19.91 -423.59,-59.72 -27.76,-6.81 -41.36,-17.81 -41.36,-31.95l4.71 -21.47c4.18,-15.19 7.85,-42.43 10.99,-81.19 9.43,-99.52 14.14,-176.52 14.14,-231.52l-1.57 -73.85 91.11 0zm1658.25 -722.31l200.02 -177.04c47.12,-44.52 93.2,-74.38 138.76,-91.14 45.02,-16.23 100,-24.62 163.88,-24.62 113.1,0 211.53,22.53 294.26,68.1 83.27,45.57 140.86,104.23 172.79,174.94 31.95,71.24 48.18,192.23 48.18,363.51l-6.28 454.13c0,102.14 4.19,183.33 12.56,242.51 2.62,24.62 11.52,42.96 25.14,55.53 14.13,12.04 43.98,20.42 90.05,24.61l117.29 12.05 0 88c-100,-6.29 -196.87,-9.43 -291.64,-9.43 -81.17,0 -162.32,3.14 -242.43,9.43 18.84,-256.14 28.27,-508.6 28.27,-756.88 0,-166.56 -10.48,-279.18 -31.42,-338.37 -20.94,-59.71 -58.12,-106.33 -112.05,-141.42 -54.45,-34.57 -122.52,-51.86 -205.25,-51.86 -84.83,0 -161.8,20.43 -230.91,60.76 -69.12,40.34 -117.28,86.95 -143.46,139.86 -18.34,38.23 -27.76,127.8 -27.76,270.27l0 266.61c0,243.04 5.77,377.65 16.76,403.32 11.52,25.67 52.36,41.38 123.05,47.66l133.51 12.05 0 88c-159.69,-6.29 -287.98,-9.43 -384.84,-9.43 -101.59,0 -233.53,3.14 -397.42,9.43l0 -88 96.34 -12.05c60.74,-7.33 98.44,-15.71 113.62,-25.66 15.19,-9.43 25.66,-31.95 30.37,-66.52 7.33,-55 11,-178.62 11,-370.85l0 -1035.01c0,-272.89 -7.33,-425.31 -21.47,-458.31 -9.42,-22.52 -50.79,-33.52 -124.09,-33.52l-105.77 0 0 -94.29c158.65,-16.76 285.37,-39.8 380.66,-69.66l125.67 -43.47c16.22,0 24.6,10.99 24.6,32.47l-4.71 62.86 -9.43 276.03c-5.23,139.33 -7.85,247.23 -7.85,324.23l0 411.17z"/>
  <path class="fil0" d="M6160.17 11683.51l409.25 -1006.06c69,-172.28 195.02,-500.64 376.84,-985.06l108.62 0c69.6,216.7 162.61,491.63 279.63,822.98l424.24 1192.75 322.23 -1111.71c30,-106.85 82.81,-312.15 158.42,-615.29 6.6,-27.01 10.2,-48.62 10.2,-66.63 0,-20.41 -9,-36.61 -26.4,-46.82 -17.4,-10.2 -60.61,-19.21 -130.21,-26.41l-159.63 -12.01 0 -111.65c163.83,7.21 292.84,10.81 385.85,10.81 100.21,0 224.42,-3.6 372.04,-10.81l0 111.65 -91.21 0c-40.21,0 -69.61,9.61 -90.01,28.22 -37.21,38.41 -126.62,283.33 -267.04,735.34 -184.81,605.08 -337.83,1156.13 -459.64,1653.16l-184.22 0c-21,-78.64 -38.4,-136.86 -52.81,-175.88 -51,-150.67 -170.42,-483.83 -357.03,-997.66l-287.43 -790.57 -329.44 795.37c-197.42,476.02 -343.23,865.6 -438.65,1168.74l-182.41 0 -93.02 -432.2c-25.8,-127.26 -55.8,-263.52 -89.41,-407.59l-306.03 -1313.4c-28.8,-129.06 -55.2,-204.7 -78.6,-228.11 -24,-23.41 -72.62,-35.42 -146.42,-35.42l-73.81 0 0 -111.65c168.62,7.21 313.83,10.81 436.25,10.81 119.41,0 279.62,-3.6 482.45,-10.81l0 111.65 -111.01 0c-79.21,0 -131.41,7.21 -155.42,21.01 -24.01,13.81 -36,36.62 -36,67.84 0,18.6 3,40.21 8.99,64.83l121.22 583.46 249.62 1117.12zm2824.51 -688.52l1.8 -118.25 -1.8 -121.86 192.01 -108.65c86.41,-48.62 162.63,-82.24 227.43,-100.85 65.41,-18.6 134.42,-28.21 208.23,-28.21 162.01,0 292.23,36.02 391.84,108.65 99.01,72.63 158.41,165.68 178.22,277.93 13.79,84.04 22.8,293.53 26.4,627.29 2.4,315.14 9.6,488.62 21,521.64 11.41,33.01 40.81,49.22 87.61,49.22l136.21 0 0 115.25c-133.81,-7.2 -226.82,-10.8 -279.63,-10.8 -66.01,0 -153.62,3.6 -264.03,10.8l1.8 -156.07c0,-49.82 -0.6,-100.84 -1.8,-152.47l-364.24 277.93c-32.4,24.61 -64.79,42.02 -96.6,51.62 -31.2,10.21 -75.61,15.01 -131.42,15.01 -151.21,0 -267.02,-37.22 -346.83,-111.65 -79.82,-74.43 -119.42,-174.68 -119.42,-300.14 0,-118.25 28.21,-222.1 85.21,-310.94 57.01,-88.24 138.02,-153.67 243.03,-195.69 104.41,-42.62 348.04,-97.85 730.27,-165.68 -2.4,-148.27 -35.39,-259.32 -98.4,-333.15 -79.81,-92.44 -193.22,-138.67 -340.84,-138.67 -56.41,0 -109.21,6.61 -158.41,20.41 -49.22,13.81 -94.82,34.82 -137.43,62.43 -33.59,84.04 -64.8,164.48 -93,241.31l-97.21 -26.41zm925.29 278.53c-325.83,70.23 -532.85,136.26 -620.46,198.09 -88.21,61.23 -132.01,156.67 -132.01,285.73 0,87.04 25.2,156.68 75.6,208.9 50.41,52.22 115.21,78.04 195.02,78.04 88.21,0 172.22,-24.62 252.63,-73.84 79.81,-49.22 156.62,-122.46 229.22,-220.3l-3.59 -390.18 3.59 -86.44zm1324.94 -1668.17c-19.2,343.96 -28.8,654.9 -28.8,932.83l0 904.02c0,358.96 7.8,562.46 22.81,610.48 8.39,24.61 46.8,40.82 115.81,48.02l149.41 15.61 0 100.84c-128.41,-7.2 -250.22,-10.8 -366.64,-10.8 -129.61,0 -298.82,3.6 -508.25,10.8l0 -100.84 151.22 -12.61c66.61,-5.4 104.41,-22.81 114.01,-51.02 15,-45.62 22.8,-254.52 22.8,-626.09l0 -901.01 -1.8 -338.56 -5.4 -231.11c0,-57.62 -5.99,-92.44 -19.2,-105.65 -18.6,-18.6 -57.61,-28.21 -117.61,-28.21l-144.02 0 0 -100.85c244.83,-22.21 439.85,-67.83 585.66,-136.86l30 21.01zm1047.71 0c-19.2,343.96 -28.8,654.9 -28.8,932.83l0 904.02c0,358.96 7.8,562.46 22.81,610.48 8.39,24.61 46.8,40.82 115.8,48.02l149.42 15.61 0 100.84c-128.41,-7.2 -250.22,-10.8 -366.64,-10.8 -129.61,0 -298.82,3.6 -508.25,10.8l0 -100.84 151.22 -12.61c66.6,-5.4 104.41,-22.81 114.01,-51.02 15,-45.62 22.8,-254.52 22.8,-626.09l0 -901.01 -1.8 -338.56 -5.4 -231.11c0,-57.62 -6,-92.44 -19.2,-105.65 -18.61,-18.6 -57.61,-28.21 -117.61,-28.21l-144.02 0 0 -100.85c244.82,-22.21 439.85,-67.83 585.66,-136.86l30 21.01z"/>
  <path class="fil1" d="M16020.05 11423.69c-342.49,-118.61 -1030.05,-1044.83 -1012.83,-1481.94 -152.52,-30.75 -297.52,-195.99 -360.52,-153.37 -203.78,137.85 -326.59,-129.95 -465.97,-47.43 -227.28,134.56 -371.59,-102.2 -493.94,-61.9 -9.08,2.99 -17.5,8.7 -26.41,14.95 -49.71,34.89 -103.96,48.76 -158.21,48.86 -61.14,0.13 -122.41,-16.93 -178.37,-35.84 -99.56,-33.66 -181.8,-76.42 -214.1,-53.42 -76.74,54.67 -163.08,72.24 -250.59,70.54 -72.72,-1.41 -148.91,-14.4 -220.37,-32.61 -84.4,-21.51 -162.56,-49.51 -225.01,-62.12 -46.33,-9.36 -83.64,-11.48 -107.39,0.82 171.77,554.67 177.48,1180.54 23.28,1874.99 139.36,-97.3 390.21,-261.75 627.81,-242.19 77.61,6.39 153.14,33.69 225.03,87.8 151.31,113.91 501.99,-210.47 764.36,0 248.16,199.06 596.97,-300.07 1119.6,-136.76 48.55,15.17 94.08,29.49 135.54,47.52 257.19,111.83 453.47,223.19 818.09,162.1z"/>
  <path class="fil2" d="M12427.93 10864.65c16.35,-114.07 15.46,-512.56 -4.45,-651.25 165.11,13.8 205.38,56.4 437.64,56.4 190.12,0 303.26,-89.27 467.17,27.63 81.16,57.89 386.42,-107.15 500.1,-46.09 129.41,44.75 227.79,101.26 384.67,8.31 162.41,-96.24 215,-29.96 383.24,16.74 174.65,48.47 138.97,-16.75 224.41,-15.65 83.74,1.09 225.41,60.47 289.69,81.06 40.37,93.63 214.49,392.83 295.47,498.22 -322.9,-160.88 -573.42,-120.85 -738.67,-176 -196.35,-65.53 -313.55,27.75 -483.63,67.7 -196.85,46.23 -262.41,-66.97 -486.5,6.82 -103.74,34.15 -272.85,92.21 -373.75,21.79 -36.09,-25.19 -235.15,-47.32 -350.95,-21.83 -189.24,41.65 -314.63,39.82 -544.44,126.15z"/>
  <path class="fil2" d="M13762.55 11279.12c22.97,2.17 43.66,5.39 65.94,11.05 64.3,16.34 108.32,62.68 163.81,89.11 27.77,13.23 58.3,19.9 89.94,19.23 141.97,-3.06 306.05,-105.32 431.6,-147.94 -140.06,-126.1 -122.04,-208.67 -166.24,-278.81 -44.2,-70.13 -109.51,-167.86 -128.41,-249.32 -48.32,-208.25 -108.94,-251.02 -127.15,-407.6 -5.42,-46.58 -63.96,-166 -64.03,-166.71 -4.9,-45.15 -116.53,-380.9 -112.39,-393.33 -39.69,-14.02 -111.78,-63.33 -173.88,-77.76 -24.2,-5.62 -50.25,-2.2 -60.87,4.18 -36.58,21.98 -81.1,58.02 -178.7,61.64 -49.82,1.84 -165.79,-30.71 -178.6,-35.91 3.17,6.33 124.18,298.09 135.85,325.71 62.62,148.26 46.15,349.8 141.64,518.71 86.7,153.35 50.03,266.98 96.1,401.2 27.99,81.49 65.39,251.04 65.39,326.55z"/>
  <path class="fil2" d="M12306.34 9630.23c9.43,36.34 19.84,72.84 31.53,109.63 238.39,126.55 440.91,386.89 679.28,513.43 60.53,32.13 172.01,27.21 233.55,56.46 80.31,38.18 110.77,78.89 188.12,123.48 57.08,32.9 167.77,3.14 232.69,36.14 89.46,45.46 149.16,145.81 235.64,204.33 102.94,69.65 229.79,180.98 350.11,146.48 74.56,-21.38 265.64,19.94 393.89,77.7 191.34,86.17 381.08,285.72 579.3,374.9 384.65,181.19 537.76,187.84 789.6,150.91 -85.66,-38.45 -157.92,-87.2 -218.06,-139.84 -296.13,-108.25 -529.92,-333.49 -750.42,-462.26 -101.66,-59.36 -218.66,-90.72 -321.54,-141.39 -122.09,-60.11 -179.38,-145.42 -283.91,-175.08 -112.2,-31.83 -219.46,-15.71 -339.85,-42.26 -99.07,-21.85 -165.48,-163.96 -277.88,-211.52 -65.53,-27.72 -250.71,15.89 -319.57,-20.76 -80.3,-42.74 -127.6,-163.18 -202.77,-222.51 -75.18,-59.32 -90.43,-3.89 -179.73,-51.98 -89.29,-48.09 -191.63,-147.34 -266.95,-231.95 -96.16,-4.61 -179.31,-18.82 -274.19,-47.63 -90.76,-27.56 -233.63,-73.94 -278.84,-46.28z"/>
  <path class="fil3" d="M14472.57 10717.9c62.91,4.82 278.55,94.31 406.75,152.03 191.31,86.13 277.4,260.12 468.72,363.25 143.36,77.27 307.98,166.8 382.71,204.3 69.98,7.14 144.47,8.48 289.3,-13.79 -205.4,-53.52 -340.83,-119.54 -528.19,-230.02 -214.2,-126.32 -315.31,-259.9 -449.6,-338.3 -101.63,-59.33 -284.38,-110.74 -389.6,-175.39 -38.86,-11.57 -78.37,-15.72 -180.09,37.92z"/>
  <path class="fil3" d="M12306.34 9630.23c41.41,11.41 147.99,75.85 245.39,156.15 106.15,87.51 202.98,191.94 231.68,217.07 45.71,40.03 112.55,84.96 159.11,121.82 58,45.9 103.41,81.32 164.98,113.99 50.63,-6.86 88.74,-27.81 167.42,-25.39 -44.67,-23.77 -72.46,-51.12 -101.76,-72.09 -23.37,-16.74 -37.62,-40.59 -74.93,-60.92 -82.15,-44.76 -142.25,-77.86 -231.53,-125.93 -101.02,-54.4 -206.43,-182.51 -281.52,-278.42 -90.76,-27.56 -233.63,-73.94 -278.84,-46.28z"/>
  <path class="fil2" d="M12329.62 11505.22c13.57,-60.71 26.15,-121.87 37.35,-183.7 254.49,-264.03 479.14,-487.34 782.51,-592.97 97.31,-33.87 168.73,-38.42 260.98,-82.69 58.28,-27.96 115.63,-162.21 172.05,-193.82 68.6,-38.46 158.13,-54.07 224.57,-93.7 48.3,-28.8 73.46,-82.41 122.99,-107.84 39.23,-20.14 93.69,-3.54 129.99,-31.42 44.6,-34.26 93.95,-63.31 130.72,-111.31 42.57,-55.57 110.74,-174.9 160.18,-217.9 62.13,-54.03 75.38,5.56 179.9,-61.34 113.02,-11.23 103.75,-53.99 146.34,-46.83 63.59,10.69 111.48,54.67 172.27,90.87 52.6,31.33 109.92,57.81 157.75,69.18 -1.02,23.65 -0.1,46.92 2.66,69.86 -77.62,47.59 -162.25,21.83 -239.86,69.4 -33.63,20.62 -39.79,98.27 -71.61,134.37 -29.05,32.99 -83.84,38.62 -114.59,57.45 -54.76,33.56 -156.16,11.23 -210.92,44.77 -58.34,35.73 -77.37,121.76 -131.79,162.17 -45.21,33.58 -151.29,21.03 -198.85,51.49 -77.79,49.81 -111.68,116.85 -178.64,182 -53.29,51.83 -125.21,106.11 -188.28,144.75 -185.2,40.45 -244.03,187.88 -372.49,300.37 -78.69,68.91 -129.53,26.44 -217.32,136.06 -198.47,-89.59 -485.55,17.37 -755.91,210.78z"/>
  <path class="fil3" d="M13406.77 10785.23c100.66,24.79 130,10.25 225.07,1.93 -136.29,42.78 -249.3,183.24 -374.39,303.69 -75.31,72.52 -169.62,68.11 -257.41,177.73 -48.85,-6.66 -136.47,-16.34 -282.35,30.44 111.6,-101.12 218.75,-203.91 320.57,-289.03 61.94,-51.78 147.86,-80.34 206.64,-117.08 65.83,-41.14 99.53,-89.92 161.87,-107.68z"/>
  <path class="fil3" d="M14253.65 10146.21c42.57,-55.57 103.15,-167.4 152.55,-210.36 62.08,-53.99 114.34,-13.74 155.45,-45.61 45.75,-35.49 107.2,-112.88 174.06,-88.73 37.87,18.89 72.91,46.73 113.76,71.06 -58.3,0.1 -82.77,-7.93 -127.01,8.77 -77.63,47.59 -78.48,89.14 -161.86,129.66 -35.41,17.2 -59.25,9.58 -89.07,68.56 -19.8,39.15 -53.58,92.19 -84.33,111.02 -72.97,-25.49 -185.57,62.95 -233.95,52.83 32.54,-20.85 69.13,-67.76 100.4,-97.2z"/>
  <path class="fil3" d="M13901.76 11323.33c28.21,17.51 60.34,44.11 100.58,60.27 23.58,9.47 42.71,15.8 88.35,14.61 121.29,-8.59 213.18,-58.15 319.94,-105.75 -140.06,-126.09 -145.57,-303.95 -189.77,-374.09 -44.2,-70.13 -93.22,-167.88 -112.11,-249.32 -48.3,-208.25 -108.94,-251.03 -127.15,-407.6 -5.41,-46.57 -63.96,-166.05 -64.03,-166.71 -4.86,-45.15 -116.43,-381.96 -112.28,-394.39 -30.31,-13.78 -39.77,-17.31 -63.55,-23.31 -24.03,-6.28 -50.25,-2.2 -60.87,4.18 -36.58,21.98 -81.1,58.03 -178.7,61.64 -4.47,0.08 -34.34,-0.68 -44.87,-3.75 3.18,6.33 138.41,296.05 150.06,323.64 62.58,148.24 18.23,384.76 113.7,553.64 86.68,153.33 65.18,235.56 111.23,369.75 27.96,81.47 79.65,250.62 69.47,337.19z"/>
  <path class="fil3" d="M12438.41 10750.45c2.22,-114.07 1.33,-293.05 -5.52,-431.74 165.1,13.8 215.45,47.04 447.72,47.04 190.11,0 421.45,-120.7 549.34,-31.4 80.71,56.35 212.15,43.03 341.12,42.5 75.68,-0.32 75.95,-55.78 154.36,-57.19 18.31,-0.32 113.37,53.56 229.14,59.05 91.29,4.33 136.69,-100.43 229.76,-76.98 73.13,18.43 139.96,35.45 237.27,62.44 174.62,48.43 147.16,-24.85 232.56,-23.78 83.7,1.03 234.68,66.49 298.96,87.08 50.79,92.93 133.66,233.02 173.09,295.55 -128.31,-63.93 -217.22,-88.36 -302.8,-105.32 -126.91,-25.14 -182.75,14.84 -337.58,-25.95 -266.87,-70.3 -221.62,30.1 -461.52,67.7 -199.74,31.29 -218.18,-71.6 -442.26,2.16 -103.71,34.14 -312.44,38.62 -413.32,-31.78 -36.07,-25.17 -256.14,-14.69 -371.92,10.78 -189.22,41.63 -328.59,23.52 -558.4,109.84z"/>
 </g>
</svg>
